<?xml version="1.0" standalone="no"?>
<!DOCTYPE svg PUBLIC "-//W3C//DTD SVG 20010904//EN"
 "http://www.w3.org/TR/2001/REC-SVG-20010904/DTD/svg10.dtd">
<svg version="1.0" xmlns="http://www.w3.org/2000/svg"
 width="256.000000pt" height="256.000000pt" viewBox="0 0 256.000000 256.000000"
 preserveAspectRatio="xMidYMid meet">
<metadata>
Created by potrace 1.14, written by Peter Selinger 2001-2017
</metadata>
<g transform="translate(0.000000,256.000000) scale(0.100000,-0.100000)"
fill="#000000" stroke="none">
<path d="M232 2313 c-13 -11 -25 -38 -30 -70 -9 -53 -8 -259 2 -303 4 -14 8
-41 11 -60 9 -70 54 -202 107 -319 l20 -45 -22 -50 c-39 -90 -80 -207 -84
-239 -3 -18 -6 -33 -7 -34 -7 -10 -31 -161 -32 -206 0 -21 -7 -29 -26 -33 -56
-12 -68 -16 -119 -36 -28 -11 -52 -24 -52 -29 0 -12 13 -11 47 3 15 6 30 12
33 12 3 1 10 5 17 9 6 4 31 10 55 13 l43 6 -1 -51 c0 -50 -1 -52 -50 -85 -62
-42 -84 -66 -60 -66 9 0 25 8 36 17 10 10 32 26 48 36 l30 17 11 -47 c5 -27
12 -55 15 -63 4 -8 -5 -28 -19 -44 -25 -30 -40 -64 -32 -73 3 -2 14 8 23 24
18 27 34 43 44 43 3 0 16 -21 30 -47 26 -50 102 -132 162 -176 89 -65 228
-121 395 -157 54 -12 65 -14 178 -27 90 -10 459 -10 550 0 120 14 109 12 288
52 9 2 22 7 27 10 5 3 18 8 27 10 31 6 147 56 163 70 8 7 29 20 46 28 31 16
154 128 154 140 0 3 11 22 24 42 14 20 27 41 29 48 3 7 16 0 35 -20 33 -36 59
-45 43 -15 -5 10 -21 30 -36 44 l-26 27 17 63 c9 35 18 64 20 66 4 7 49 -20
77 -46 19 -18 30 -23 38 -15 11 11 -39 55 -91 81 -26 13 -27 22 -21 106 1 8
19 6 85 -8 16 -4 46 -16 67 -27 31 -15 39 -16 39 -5 0 16 -86 53 -149 64 -31
5 -45 12 -47 25 -1 10 -5 46 -9 79 -3 34 -10 80 -15 102 -5 23 -11 54 -14 70
-3 16 -20 71 -37 123 l-32 93 56 113 c48 97 98 225 114 292 24 101 32 192 19
231 -14 45 -80 58 -296 58 -125 0 -164 -3 -260 -20 -49 -8 -146 -42 -202 -70
-44 -22 -49 -23 -87 -9 -23 8 -41 12 -41 10 0 -3 -11 0 -25 5 -75 29 -365 33
-475 7 -90 -21 -109 -20 -145 12 -20 17 -40 31 -45 31 -5 0 -15 6 -22 13 -22
22 -165 97 -172 90 -3 -3 -6 0 -6 7 0 7 -3 10 -7 7 -3 -4 -11 -3 -17 2 -30 24
-320 111 -372 111 -12 0 -31 -8 -42 -17z"/>
</g>
</svg>
